<svg width="54" height="22" viewBox="0 0 54 22" fill="none" xmlns="http://www.w3.org/2000/svg">
<path d="M13.5474 4.75781C13.3514 4.97438 13.2277 5.25969 13.2277 5.57594C13.2277 5.89219 13.348 6.16719 13.5371 6.38375C12.7602 6.86156 12.2171 7.91688 12.2171 9.14406C12.2171 10.8147 13.2242 12.1725 14.4583 12.1725C15.6924 12.1725 16.6996 10.8147 16.6996 9.14406C16.6996 7.91688 16.1599 6.86156 15.383 6.38375C15.383 6.38375 15.383 6.38375 15.3796 6.38375C15.5686 6.16719 15.6889 5.88875 15.6889 5.57594C15.6889 5.26313 15.5652 4.97438 15.3692 4.75781C16.4349 4.33844 18.3014 3.34844 19.6489 1.21719C19.7486 1.05563 19.7039 0.845939 19.5424 0.742814C19.3808 0.643126 19.1711 0.691251 19.068 0.849376C17.4283 3.44125 14.9052 4.21813 14.4617 4.33844C14.0183 4.21813 11.4952 3.44469 9.85549 0.849376C9.7558 0.687814 9.54268 0.639689 9.38112 0.742814C9.21955 0.842501 9.17143 1.05563 9.27455 1.21719C10.6221 3.34844 12.4852 4.34188 13.5542 4.75781H13.5474ZM14.4549 6.11563C14.4549 6.11563 14.4549 6.11563 14.4514 6.11563C14.1558 6.11219 13.9186 5.87156 13.9186 5.57594C13.9186 5.28031 14.1627 5.03625 14.4583 5.03625C14.7539 5.03625 14.998 5.28031 14.998 5.57594C14.998 5.87156 14.7574 6.11219 14.4617 6.11563C14.4617 6.11563 14.4583 6.11563 14.4549 6.11563Z" fill="black"/>
<path d="M10.7798 9.61445C10.7798 7.41789 9.17103 5.59602 7.07072 5.25227L7.0776 5.24539L8.08478 4.2382C8.21885 4.10414 8.21885 3.88414 8.08478 3.75008L7.48322 3.14852C7.41791 3.0832 7.33197 3.04883 7.23916 3.04883H5.46885C5.37947 3.04883 5.2901 3.0832 5.22479 3.14852L4.62322 3.75008C4.48916 3.88414 4.48916 4.10414 4.62322 4.2382L5.63385 5.24883C3.53697 5.59602 1.92822 7.41789 1.92822 9.61445C1.92822 12.0551 3.91166 14.0385 6.35228 14.0385C8.79291 14.0385 10.7763 12.0551 10.7763 9.61445H10.7798ZM6.35572 13.351C4.29666 13.351 2.61916 11.6735 2.61916 9.61445C2.61916 7.55539 4.29666 5.87789 6.35572 5.87789C8.41478 5.87789 10.0923 7.55539 10.0923 9.61445C10.0923 11.6735 8.41478 13.351 6.35572 13.351Z" fill="black"/>
<path d="M19.9684 15.5859L17.8337 13.4513C17.7718 13.3894 17.6824 13.3516 17.593 13.3516H11.3196C11.2302 13.3516 11.1409 13.3894 11.0755 13.4513L8.9443 15.5859C8.81023 15.72 8.81023 15.94 8.9443 16.0741L14.0799 21.2131C14.1452 21.275 14.2346 21.3128 14.324 21.3128H14.5887C14.678 21.3128 14.7674 21.275 14.8293 21.2131L19.9684 16.0741C20.1024 15.94 20.1024 15.72 19.9684 15.5859ZM18.8959 16.1737H16.4827L15.2521 19.8175L14.6024 20.4672L14.4546 20.615L14.3068 20.4672L13.6605 19.8209L12.4265 16.1737H10.0168L9.67305 15.83L10.0168 15.4862H12.4265L12.9146 14.0391H13.6434L13.1552 15.4862H15.7574L15.2693 14.0391H15.9946L16.4827 15.4862H18.8959L19.2396 15.83L18.8959 16.1737Z" fill="black"/>
<path d="M14.4581 20.0273L15.7575 16.1738H13.1553L14.4581 20.0273Z" fill="black"/>
<path d="M29.982 17L35.688 4.4H37.47L43.194 17H41.304L36.21 5.408H36.93L31.836 17H29.982ZM32.412 13.85L32.898 12.41H39.99L40.512 13.85H32.412ZM44.8216 17V3.644H46.5496V17H44.8216ZM49.8489 17V3.644H51.5769V17H49.8489Z" fill="black"/>
</svg>
