<svg width="110" height="27" viewBox="0 0 110 27" fill="none" xmlns="http://www.w3.org/2000/svg">
<path d="M26.8734 9.70332C26.8313 9.53457 26.7891 9.40801 26.7047 9.23926C25.6078 6.66582 21.5156 5.4002 18.2672 4.80957C18.225 4.80957 18.225 4.80957 18.1828 4.80957C18.1406 4.80957 18.1406 4.80957 18.1406 4.80957C17.2547 4.64082 16.4109 4.51426 15.525 4.47207C14.7656 4.3877 14.0484 4.3877 13.3313 4.3877C12.7406 4.3877 12.1922 4.3877 11.6016 4.42988C10.7156 4.47207 9.82969 4.59863 9.02812 4.7252H8.94375C8.775 4.76738 8.60625 4.76738 8.4375 4.80957C4.09219 5.69551 1.09687 7.46738 0.253125 9.61895H0.210938V9.74551C0.084375 10.1252 0 10.5471 0 10.9268V16.4111C0 16.9596 0.16875 17.4236 0.421875 17.8455C2.3625 20.7986 7.425 22.6549 13.5422 22.6549H14.3016C14.7656 22.6549 15.2719 22.6127 15.7359 22.5705C18.2672 22.3596 24.4266 21.5158 26.6625 17.7611C26.8734 17.3814 27 16.9174 27 16.4533V9.95645C27 9.87207 26.9578 9.7877 26.8734 9.70332ZM20.4609 7.29863L18.8578 5.61113C21.6844 6.20176 25.1859 7.38301 26.1141 9.53457C26.5359 10.5471 26.3672 11.7705 25.5656 13.1205C24.3 11.5596 21.7687 10.3783 18.3937 9.7877L20.4609 7.59395C20.5031 7.50957 20.5031 7.38301 20.4609 7.29863ZM11.5594 5.0627H11.6859C12.1922 5.02051 12.7406 5.02051 13.2891 5.02051C14.0063 5.02051 14.7234 5.0627 15.3984 5.10488H15.525L17.8031 7.4252L15.7781 9.4502C15.7359 9.4502 15.6938 9.4502 15.6938 9.4502C15.0609 9.40801 14.3859 9.36582 13.7109 9.36582C12.9094 9.36582 12.1078 9.40801 11.3484 9.4502C11.3062 9.4502 11.2641 9.4502 11.2641 9.4502L9.28125 7.4252L11.5594 5.0627ZM9.28125 10.3783H9.36563C9.99844 10.2518 10.6312 10.1674 11.3062 10.1252C12.1078 10.0408 12.9094 9.99863 13.7109 9.99863C14.3859 9.99863 15.0187 10.0408 15.6516 10.083H15.7359L16.2422 10.1252C16.7906 10.1674 17.2547 10.2518 17.6766 10.2939H17.7188H17.7609H17.8031C21.2203 10.8424 23.9203 12.0658 25.0594 13.5846C22.1906 15.7783 17.9297 17.0439 13.3734 17.0439C12.6984 17.0439 12.0234 17.0018 11.3906 16.9596V17.0861L11.3484 16.9596C10.6734 16.9174 10.0406 16.833 9.45 16.7064H9.40781H9.36563C6.4125 16.2002 3.83906 15.1455 1.94062 13.6268C3.62812 12.0658 6.15938 10.9268 9.28125 10.3783ZM0.84375 9.95645C1.51875 8.01582 4.34531 6.37051 8.31094 5.52676L6.66563 7.29863C6.58125 7.38301 6.58125 7.50957 6.66563 7.59395L8.775 9.87207C5.65312 10.4627 3.16406 11.6439 1.47656 13.2471C0.928125 12.4877 0.632812 11.7283 0.632812 11.0111C0.675 10.5893 0.717188 10.2939 0.84375 9.95645ZM6.66563 19.9549L8.05781 21.4736C4.68281 20.7564 2.15156 19.3221 0.970312 17.508C0.759375 17.1705 0.632812 16.7908 0.632812 16.4111V13.1205C0.801562 13.3736 0.970312 13.6268 1.18125 13.8799L1.22344 13.9221C3.16406 15.5252 5.82188 16.7064 8.85938 17.2549L6.62344 19.6174C6.58125 19.7439 6.58125 19.8705 6.66563 19.9549ZM15.7359 21.9377C15.6937 21.9377 15.6516 21.9377 15.6094 21.9377C15.1875 21.9799 14.7656 21.9799 14.2594 22.0221C14.0062 22.0221 13.7531 22.0221 13.5 22.0221C12.825 22.0221 12.15 21.9799 11.475 21.9377C11.4328 21.9377 11.3906 21.9377 11.3484 21.9377L9.23906 19.8283L11.3906 17.6346H11.475C12.1078 17.6768 12.7828 17.7189 13.4156 17.7189C14.175 17.7189 14.8922 17.6768 15.5672 17.6346H15.6516L17.8031 19.8283L15.7359 21.9377ZM26.325 16.4533C26.325 16.833 26.2406 17.1705 26.0719 17.4236C24.975 19.2799 22.4859 20.6721 19.0266 21.4314L20.4609 19.9127C20.5453 19.8283 20.5453 19.7018 20.4609 19.6174L18.225 17.2127C21.2203 16.6221 23.8359 15.483 25.7766 13.9221L25.8188 13.8799C25.8188 13.8799 25.8609 13.8377 25.8609 13.7955C26.0297 13.5002 26.1984 13.2471 26.325 12.9939V16.4533Z" fill="black"/>
<path d="M13.7952 8.94375C13.8374 8.94375 13.8796 8.98593 13.9218 8.98593C13.964 8.98593 14.0061 8.98593 14.0061 8.94375C14.9343 8.39531 15.5249 7.80468 15.7358 7.0875C15.8624 6.58125 15.6936 6.075 15.314 5.77968C14.9343 5.52656 14.428 5.52656 13.9218 5.82187C13.4577 5.52656 12.9515 5.48437 12.5296 5.7375C12.1077 5.99062 11.939 6.53906 12.0655 7.04531C12.3186 7.7625 12.8671 8.35312 13.7952 8.94375Z" fill="black"/>
<path d="M15.314 18.4785C14.9343 18.2254 14.428 18.2254 13.9218 18.5207C13.4577 18.1832 12.9515 18.1832 12.5296 18.4363C12.1077 18.6894 11.939 19.2379 12.0655 19.7441C12.2765 20.4191 12.8249 21.0519 13.753 21.6004C13.7952 21.6004 13.8374 21.6425 13.8796 21.6425C13.9218 21.6425 13.964 21.6425 13.964 21.6004C14.8921 21.0519 15.4827 20.4613 15.6936 19.7863C15.8624 19.28 15.6936 18.7316 15.314 18.4785Z" fill="black"/>
<path d="M36.89 19.5V6.9H42.542C43.994 6.9 45.11 7.194 45.89 7.782C46.67 8.358 47.06 9.15 47.06 10.158C47.06 10.842 46.904 11.418 46.592 11.886C46.292 12.354 45.884 12.714 45.368 12.966C44.852 13.218 44.294 13.344 43.694 13.344L44.018 12.804C44.738 12.804 45.374 12.93 45.926 13.182C46.478 13.434 46.916 13.806 47.24 14.298C47.564 14.778 47.726 15.378 47.726 16.098C47.726 17.178 47.318 18.018 46.502 18.618C45.698 19.206 44.498 19.5 42.902 19.5H36.89ZM38.69 18.042H42.83C43.826 18.042 44.588 17.874 45.116 17.538C45.644 17.202 45.908 16.674 45.908 15.954C45.908 15.222 45.644 14.688 45.116 14.352C44.588 14.016 43.826 13.848 42.83 13.848H38.528V12.39H42.38C43.292 12.39 44 12.222 44.504 11.886C45.008 11.55 45.26 11.046 45.26 10.374C45.26 9.702 45.008 9.198 44.504 8.862C44 8.526 43.292 8.358 42.38 8.358H38.69V18.042ZM56.183 19.5V17.484L56.093 17.106V13.668C56.093 12.936 55.877 12.372 55.445 11.976C55.025 11.568 54.389 11.364 53.537 11.364C52.973 11.364 52.421 11.46 51.881 11.652C51.341 11.832 50.885 12.078 50.513 12.39L49.793 11.094C50.285 10.698 50.873 10.398 51.557 10.194C52.253 9.978 52.979 9.87 53.735 9.87C55.043 9.87 56.051 10.188 56.759 10.824C57.467 11.46 57.821 12.432 57.821 13.74V19.5H56.183ZM53.051 19.608C52.343 19.608 51.719 19.488 51.179 19.248C50.651 19.008 50.243 18.678 49.955 18.258C49.667 17.826 49.523 17.34 49.523 16.8C49.523 16.284 49.643 15.816 49.883 15.396C50.135 14.976 50.537 14.64 51.089 14.388C51.653 14.136 52.409 14.01 53.357 14.01H56.381V15.252H53.429C52.565 15.252 51.983 15.396 51.683 15.684C51.383 15.972 51.233 16.32 51.233 16.728C51.233 17.196 51.419 17.574 51.791 17.862C52.163 18.138 52.679 18.276 53.339 18.276C53.987 18.276 54.551 18.132 55.031 17.844C55.523 17.556 55.877 17.136 56.093 16.584L56.435 17.772C56.207 18.336 55.805 18.786 55.229 19.122C54.653 19.446 53.927 19.608 53.051 19.608ZM61.0189 19.5V9.96H62.6749V12.534L62.4049 11.85C62.7169 11.226 63.1969 10.74 63.8449 10.392C64.4929 10.044 65.2489 9.87 66.1129 9.87C66.8929 9.87 67.5769 10.02 68.1649 10.32C68.7649 10.62 69.2329 11.076 69.5689 11.688C69.9049 12.3 70.0729 13.074 70.0729 14.01V19.5H68.3449V14.208C68.3449 13.284 68.1169 12.588 67.6609 12.12C67.2169 11.652 66.5869 11.418 65.7709 11.418C65.1589 11.418 64.6249 11.538 64.1689 11.778C63.7129 12.018 63.3589 12.372 63.1069 12.84C62.8669 13.308 62.7469 13.89 62.7469 14.586V19.5H61.0189ZM77.4468 23.1C76.5708 23.1 75.7188 22.974 74.8908 22.722C74.0748 22.482 73.4088 22.134 72.8928 21.678L73.7208 20.346C74.1648 20.73 74.7108 21.03 75.3588 21.246C76.0068 21.474 76.6848 21.588 77.3928 21.588C78.5208 21.588 79.3488 21.324 79.8768 20.796C80.4048 20.268 80.6688 19.464 80.6688 18.384V16.368L80.8488 14.478L80.7588 12.57V9.96H82.3968V18.204C82.3968 19.884 81.9768 21.12 81.1368 21.912C80.2968 22.704 79.0668 23.1 77.4468 23.1ZM77.2308 19.104C76.3068 19.104 75.4788 18.912 74.7468 18.528C74.0268 18.132 73.4508 17.586 73.0188 16.89C72.5988 16.194 72.3888 15.39 72.3888 14.478C72.3888 13.554 72.5988 12.75 73.0188 12.066C73.4508 11.37 74.0268 10.83 74.7468 10.446C75.4788 10.062 76.3068 9.87 77.2308 9.87C78.0468 9.87 78.7908 10.038 79.4628 10.374C80.1348 10.698 80.6688 11.202 81.0648 11.886C81.4728 12.57 81.6768 13.434 81.6768 14.478C81.6768 15.51 81.4728 16.368 81.0648 17.052C80.6688 17.736 80.1348 18.252 79.4628 18.6C78.7908 18.936 78.0468 19.104 77.2308 19.104ZM77.4288 17.592C78.0648 17.592 78.6288 17.46 79.1208 17.196C79.6128 16.932 79.9968 16.566 80.2728 16.098C80.5608 15.63 80.7048 15.09 80.7048 14.478C80.7048 13.866 80.5608 13.326 80.2728 12.858C79.9968 12.39 79.6128 12.03 79.1208 11.778C78.6288 11.514 78.0648 11.382 77.4288 11.382C76.7928 11.382 76.2228 11.514 75.7188 11.778C75.2268 12.03 74.8368 12.39 74.5488 12.858C74.2728 13.326 74.1348 13.866 74.1348 14.478C74.1348 15.09 74.2728 15.63 74.5488 16.098C74.8368 16.566 75.2268 16.932 75.7188 17.196C76.2228 17.46 76.7928 17.592 77.4288 17.592ZM85.6985 19.5V6.144H87.4265V19.5H85.6985ZM94.9739 19.608C93.9539 19.608 93.0539 19.398 92.2739 18.978C91.5059 18.558 90.9059 17.982 90.4739 17.25C90.0539 16.518 89.8439 15.678 89.8439 14.73C89.8439 13.782 90.0479 12.942 90.4559 12.21C90.8759 11.478 91.4459 10.908 92.1659 10.5C92.8979 10.08 93.7199 9.87 94.6319 9.87C95.5559 9.87 96.3719 10.074 97.0799 10.482C97.7879 10.89 98.3399 11.466 98.7359 12.21C99.1439 12.942 99.3479 13.8 99.3479 14.784C99.3479 14.856 99.3419 14.94 99.3299 15.036C99.3299 15.132 99.3239 15.222 99.3119 15.306H91.1939V14.064H98.4119L97.7099 14.496C97.7219 13.884 97.5959 13.338 97.3319 12.858C97.0679 12.378 96.7019 12.006 96.2339 11.742C95.7779 11.466 95.2439 11.328 94.6319 11.328C94.0319 11.328 93.4979 11.466 93.0299 11.742C92.5619 12.006 92.1959 12.384 91.9319 12.876C91.6679 13.356 91.5359 13.908 91.5359 14.532V14.82C91.5359 15.456 91.6799 16.026 91.9679 16.53C92.2679 17.022 92.6819 17.406 93.2099 17.682C93.7379 17.958 94.3439 18.096 95.0279 18.096C95.5919 18.096 96.1019 18 96.5579 17.808C97.0259 17.616 97.4339 17.328 97.7819 16.944L98.7359 18.06C98.3039 18.564 97.7639 18.948 97.1159 19.212C96.4799 19.476 95.7659 19.608 94.9739 19.608ZM104.483 19.608C103.691 19.608 102.935 19.5 102.215 19.284C101.507 19.068 100.949 18.804 100.541 18.492L101.261 17.124C101.669 17.4 102.173 17.634 102.773 17.826C103.373 18.018 103.985 18.114 104.609 18.114C105.413 18.114 105.989 18 106.337 17.772C106.697 17.544 106.877 17.226 106.877 16.818C106.877 16.518 106.769 16.284 106.553 16.116C106.337 15.948 106.049 15.822 105.689 15.738C105.341 15.654 104.951 15.582 104.519 15.522C104.087 15.45 103.655 15.366 103.223 15.27C102.791 15.162 102.395 15.018 102.035 14.838C101.675 14.646 101.387 14.388 101.171 14.064C100.955 13.728 100.847 13.284 100.847 12.732C100.847 12.156 101.009 11.652 101.333 11.22C101.657 10.788 102.113 10.458 102.701 10.23C103.301 9.99 104.009 9.87 104.825 9.87C105.449 9.87 106.079 9.948 106.715 10.104C107.363 10.248 107.891 10.458 108.299 10.734L107.561 12.102C107.129 11.814 106.679 11.616 106.211 11.508C105.743 11.4 105.275 11.346 104.807 11.346C104.051 11.346 103.487 11.472 103.115 11.724C102.743 11.964 102.557 12.276 102.557 12.66C102.557 12.984 102.665 13.236 102.881 13.416C103.109 13.584 103.397 13.716 103.745 13.812C104.105 13.908 104.501 13.992 104.933 14.064C105.365 14.124 105.797 14.208 106.229 14.316C106.661 14.412 107.051 14.55 107.399 14.73C107.759 14.91 108.047 15.162 108.263 15.486C108.491 15.81 108.605 16.242 108.605 16.782C108.605 17.358 108.437 17.856 108.101 18.276C107.765 18.696 107.291 19.026 106.679 19.266C106.067 19.494 105.335 19.608 104.483 19.608Z" fill="black"/>
</svg>
