<svg width="121" height="28" viewBox="0 0 121 28" fill="none" xmlns="http://www.w3.org/2000/svg">
<path d="M26.0082 14.1381C26.2452 12.931 26.3922 11.6279 26.3148 10.3518C26.5478 9.95427 26.4446 9.68324 26.5089 8.84444C26.5269 8.37789 26.2722 7.93659 25.8871 7.66755C25.645 6.99197 25.0275 6.44883 24.2753 6.34565C23.4676 6.23615 23.8967 6.31135 23.2582 6.11659C23.2826 5.95164 23.2018 5.78403 23.0789 5.66485C22.7797 5.3747 21.6549 4.96574 20.446 5.11563C20.2312 5.14221 19.9857 5.21279 19.8848 5.38267C19.7839 5.3666 19.6846 5.35096 19.5848 5.33555C19.4482 5.24595 19.3027 5.17867 19.1474 5.13715C17.5496 4.71228 15.4453 7.00247 13.8874 10.6262C13.6913 9.81913 13.4319 9.00949 13.0864 8.24136C13.1163 8.0672 13.1083 7.88228 13.0452 7.69525L12.7299 6.76059C12.5813 6.3203 12.1902 5.9893 11.7374 5.85752C11.2693 5.29618 10.4865 4.98385 9.73936 5.1286C8.98946 5.27646 9.34784 5.22197 8.69707 5.24383C8.66175 5.07987 8.52496 4.94751 8.366 4.87466C7.97208 4.69421 6.76629 4.68085 5.69292 5.20617C5.50019 5.30052 5.29435 5.44622 5.26061 5.63896C5.15744 5.65678 5.05414 5.67453 4.95243 5.6927C4.26652 5.53398 3.68367 5.84293 3.21964 6.37907C1.90955 7.89311 1.25988 11.461 1.56433 15.4686C1.95936 20.6703 3.78582 24.6724 5.77021 24.7794C5.78983 24.8223 5.8311 24.8537 5.88148 24.8559C6.31613 24.8741 6.77936 24.8928 7.25481 24.9032C7.75105 25.6098 10.2848 25.5079 11.1041 24.5924C11.9445 24.3816 12.5693 24.0515 13.0961 23.2878C13.2263 23.3973 13.3661 23.4827 13.5154 23.5425C13.517 23.5921 13.5481 23.6392 13.5967 23.6586C13.9983 23.8159 14.4256 23.9828 14.8683 24.1456C14.9403 24.4241 15.2129 24.636 15.4832 24.7838C16.3451 25.2551 17.7895 25.5328 18.5983 25.095C19.996 25.2136 20.777 24.7929 21.7281 23.8151C22.1505 23.7383 22.5393 23.4827 22.745 23.099L23.2548 22.1481C23.3562 21.9589 23.3958 21.7607 23.3918 21.5677C24.1049 20.3292 24.6276 19.0019 25.0199 17.8145C25.3459 17.7723 25.6322 17.5522 25.7267 17.2338L26.378 15.0381C26.4823 14.6865 26.3192 14.3238 26.0082 14.1381ZM25.9538 7.96261C25.9631 7.93191 26.0059 7.91564 26.0407 7.93061C26.0818 7.94837 26.1071 7.99071 26.1245 8.03122C26.1445 8.07768 26.1586 8.12898 26.146 8.17465C26.1339 8.21826 26.0994 8.2501 26.0657 8.27947C25.8875 8.43476 25.6968 8.57654 25.4954 8.70348C25.444 8.73589 25.3877 8.76836 25.3234 8.76466C25.3311 8.69532 25.3437 8.69611 25.9538 7.96261ZM26.0131 10.5549C25.9912 10.5891 25.946 10.6007 25.9035 10.6052C25.7726 10.6191 25.7229 10.5736 25.6593 10.4735C25.5205 10.2549 25.3966 10.0283 25.2887 9.79584C25.2611 9.7365 25.2339 9.67248 25.244 9.61165C25.3149 9.64077 25.3085 9.64909 25.9895 10.4615C26.0195 10.4797 26.0316 10.5259 26.0131 10.5549ZM23.6687 6.52605C24.0114 6.57532 25.3249 6.71176 25.3946 7.44548L24.2543 7.27711C23.5443 7.17954 22.9418 7.66259 22.9152 8.35055L22.8775 9.33128C22.8509 10.0192 23.4101 10.662 24.1201 10.7595C25.0722 10.8726 25.1557 10.9423 25.4965 10.8917C25.2197 11.4026 24.659 11.6418 24.0742 11.5625L23.5507 11.4906C22.6879 11.3718 22.012 10.5971 22.0442 9.76362L22.1196 7.80525C22.1497 7.0257 22.8114 6.43465 23.6687 6.52605ZM25.1979 8.55904C25.2349 8.62873 24.847 8.77779 24.5236 8.55933C24.4711 8.52398 24.4833 8.51398 24.5084 8.49125C24.6461 8.521 24.8591 8.58854 24.9811 8.59088C25.0556 8.59227 25.1272 8.57563 25.1979 8.55904ZM23.6221 7.68094C23.5923 7.66246 23.5807 7.61613 23.5996 7.58745C23.622 7.55349 23.6674 7.54245 23.71 7.53846C23.841 7.52625 23.8904 7.57207 23.9529 7.67297C24.0891 7.89292 24.2103 8.12072 24.3155 8.35406C24.3423 8.41365 24.3688 8.47793 24.3579 8.53853C24.2858 8.50803 24.284 8.48844 23.6221 7.68094ZM24.2679 9.38347C24.2593 9.45271 24.2465 9.4517 23.6268 10.1769C23.6171 10.2075 23.574 10.2233 23.5394 10.2079C23.4985 10.1897 23.4736 10.1471 23.4567 10.1064C23.4057 9.9837 23.4339 9.9311 23.5187 9.85917C23.699 9.70621 23.8917 9.5669 24.0949 9.44252C24.1468 9.41078 24.2036 9.37897 24.2679 9.38347ZM14.5383 15.6776C14.8299 15.5329 15.0204 15.2336 14.9954 14.9037L14.8225 12.6286C14.8082 12.4401 14.7231 12.2734 14.5972 12.1436C15.355 10.1274 16.2959 8.47688 17.1602 7.58403C17.1313 7.64448 17.0831 7.68702 17.0305 7.73582C17.1404 7.6648 17.266 7.62803 17.379 7.56644C17.6264 7.43168 18.0521 7.42146 18.3973 7.63135C18.7399 7.83975 18.953 8.20212 19.0502 8.57711C19.1473 8.95211 19.141 9.34347 19.1285 9.72941C19.0902 10.9041 18.9984 12.0807 18.7732 13.2377C18.561 14.3279 18.4335 15.4305 18.1749 16.5149C16.9556 19.8009 15.2422 22.1425 14.1463 21.8516C14.1408 21.8501 14.1357 21.8474 14.1302 21.8457C14.3368 21.4813 14.2789 21.2716 14.4284 20.3225C14.4555 20.1164 14.4237 19.9211 14.3543 19.7438C14.5828 18.3468 14.5948 16.9236 14.5383 15.6776ZM14.53 15.2266C14.5098 15.2695 14.4606 15.2928 14.4135 15.3075C14.3594 15.3245 14.2997 15.3346 14.2461 15.3161C14.195 15.2985 14.1573 15.2576 14.1226 15.2179C13.9389 15.0078 13.7708 14.7854 13.62 14.553C13.5815 14.4936 13.5428 14.429 13.5463 14.3594C13.6041 14.3704 13.6508 14.4092 13.6945 14.4467C13.9602 14.674 14.2258 14.9013 14.4915 15.1287C14.5275 15.1419 14.547 15.1903 14.53 15.2266ZM14.2978 12.6955C14.1177 12.9084 13.9219 13.1092 13.7121 13.2961C13.6586 13.3438 13.5996 13.3927 13.527 13.4034C13.5267 13.3229 13.5371 13.3293 14.1317 12.3705C14.1381 12.3344 14.1841 12.3065 14.225 12.3151C14.2734 12.3253 14.3073 12.3663 14.332 12.4071C14.3603 12.454 14.3828 12.5075 14.3744 12.561C14.3665 12.612 14.3318 12.6553 14.2978 12.6955ZM11.5149 12.0452C11.048 12.0771 10.6935 12.4657 10.7271 12.9087L10.8999 15.1838C10.9336 15.6269 11.3431 15.9632 11.81 15.9313L14.187 15.7687C14.2235 16.2833 13.804 16.7137 13.2816 16.7494L11.0644 16.9011C10.5252 16.9421 10.0558 16.555 10.0172 16.0471L9.73442 12.3238C9.7167 12.0899 9.7943 11.86 9.95292 11.6767C10.1231 11.4797 10.3736 11.3564 10.6399 11.3382C12.2012 11.2319 12.8746 11.184 12.9287 11.184C13.3803 11.184 13.7689 11.4778 13.8761 11.8837L11.5149 12.0452ZM13.3599 13.2046C13.4103 13.2733 12.9942 13.5276 12.6033 13.3602C12.5393 13.3327 12.5537 13.3174 12.5776 13.2882C13.0269 13.2933 13.047 13.3449 13.3599 13.2046ZM12.2354 14.4366C12.2895 14.3894 12.3491 14.3412 12.4219 14.3314C12.4212 14.4107 12.4142 14.4 11.8041 15.3573C11.7972 15.3933 11.7508 15.4207 11.71 15.4116C11.6617 15.4009 11.6284 15.3594 11.6043 15.3183C11.5765 15.2711 11.5547 15.2174 11.5638 15.164C11.5874 15.0239 12.1291 14.5289 12.2354 14.4366ZM11.4794 12.5952C11.4436 12.5815 11.4247 12.5329 11.4422 12.4968C11.463 12.4541 11.5125 12.4314 11.5597 12.4172C11.7036 12.374 11.7651 12.4113 11.8494 12.5102C12.0305 12.7224 12.1957 12.9466 12.3435 13.1808C12.3813 13.2406 12.4192 13.3057 12.4147 13.3752C12.3571 13.3636 12.311 13.3242 12.2677 13.2863C12.005 13.0559 11.7422 12.8255 11.4794 12.5952ZM12.8198 8.44897C12.8545 8.45638 12.8825 8.49594 12.8754 8.52913C12.867 8.56841 12.8287 8.59385 12.7903 8.6118C12.7463 8.63234 12.6957 8.64772 12.6444 8.63769C12.5953 8.6281 12.5529 8.59696 12.5135 8.56654C12.4049 8.48277 11.8442 8.03609 11.8146 7.88969C11.868 7.89282 11.9178 7.92121 11.9647 7.94862C12.2497 8.1154 12.5347 8.28219 12.8198 8.44897ZM11.8922 6.10994C11.8883 6.05506 11.9722 6.0086 12.0773 6.11947C12.1705 6.21754 12.1635 6.27622 12.1108 6.37192C11.9988 6.57539 11.8701 6.77018 11.7261 6.95443C11.6893 7.00152 11.648 7.0502 11.5862 7.06742C11.5679 6.99703 11.5835 6.98887 11.8922 6.10994ZM10.7604 7.13191C10.6973 7.11527 10.7068 7.10125 10.7218 7.07276C11.1115 7.02697 11.1428 7.0739 11.3946 6.9144C11.4543 6.9681 11.1427 7.23319 10.7604 7.13191ZM10.6732 8.10078C10.7106 8.05416 10.7526 8.006 10.8147 7.98951C10.8322 8.05996 10.8178 8.06401 10.4955 8.94236C10.4974 8.9742 10.4624 9.0029 10.4244 8.99958C10.3474 8.99287 10.2466 8.87802 10.2405 8.80216C10.2305 8.67978 10.5955 8.19737 10.6732 8.10078ZM9.59827 6.59605C9.56358 6.58827 9.53611 6.54842 9.54365 6.51535C9.55257 6.47623 9.59124 6.45123 9.62992 6.43376C9.75021 6.37933 9.81347 6.4087 9.90646 6.48199C10.0136 6.56646 10.5693 7.01912 10.5971 7.16571C10.5212 7.16046 10.5331 7.15641 9.59827 6.59605ZM9.27084 5.48433C9.7134 5.4047 9.85541 5.35166 10.1177 5.35166C10.5552 5.35166 10.9811 5.51806 11.309 5.79232C11.0796 5.79384 11.0235 5.83014 10.0484 6.01259C9.34566 6.1495 8.9517 6.79797 9.17289 7.45361L9.4882 8.38827C9.70938 9.04395 10.4653 9.46835 11.168 9.33144L12.1697 9.13627C12.2981 9.11123 12.412 9.06427 12.5179 9.00816C12.4429 9.53788 12.0362 9.98 11.4168 10.1006L10.8987 10.2014C10.0415 10.37 9.12716 9.85578 8.85828 9.05876L8.22861 7.1923C7.96822 6.42015 8.4236 5.64924 9.27084 5.48433ZM1.82283 15.4488C1.52788 11.5673 2.16805 7.99058 3.41573 6.54871C5.44018 4.20917 8.14418 8.52581 8.63472 14.9853C8.92955 18.8668 8.28938 22.4435 7.04182 23.8854C6.69939 24.2811 6.32746 24.4953 5.93655 24.5222C4.05996 24.6515 2.21261 20.5804 1.82283 15.4488ZM11.2625 24.2847C9.82386 24.6949 8.06148 24.6786 6.52941 24.6218C6.77784 24.5003 7.01498 24.3125 7.23778 24.055C8.54788 22.5413 9.19767 18.9734 8.89322 14.9655C8.54794 10.4188 7.10151 6.78853 5.42357 5.87397C6.43228 5.70228 7.49932 5.55398 8.55294 5.50838C8.00502 5.89113 7.74776 6.57795 7.98303 7.27534L8.61269 9.14181C8.88233 9.9411 9.71505 10.4918 10.5736 10.4918C10.6984 10.4918 10.8239 10.4801 10.9482 10.4561C11.2087 10.369 12.1129 10.4035 12.5887 9.58488C12.7259 9.34859 12.7893 9.08557 12.7866 8.81609C12.8533 8.75039 12.912 8.6787 12.9588 8.59971C13.317 9.45199 13.5723 10.3509 13.7581 11.2354C13.5157 11.0255 13.1893 10.9048 12.8395 10.9278L10.6222 11.0794C10.2874 11.1025 9.9719 11.2582 9.75683 11.507C9.55263 11.743 9.45288 12.04 9.47592 12.3436L9.75872 16.0669C9.80772 16.7125 10.397 17.2061 11.0821 17.1599L13.2994 17.0082C13.704 16.9807 14.0915 16.7581 14.3016 16.3856C14.3205 17.3416 14.2865 18.3716 14.1427 19.3941C14.0713 19.3145 13.9867 19.2474 13.8947 19.1889C13.6967 18.4877 13.081 18.0241 12.3447 17.9832L11.7348 17.9488C10.7349 17.8923 9.81506 18.6346 9.68758 19.6033L9.41402 21.6809C9.35313 22.144 9.48086 22.5937 9.77392 22.9474C10.0781 23.3145 10.519 23.532 11.0158 23.5598C11.6794 23.5961 12.141 23.6881 12.7805 23.2843C12.3953 23.7858 11.9188 24.0973 11.2625 24.2847ZM13.3814 20.2884C13.3246 20.3258 13.2629 20.3637 13.1962 20.3652C13.2114 20.2906 13.2316 20.2847 13.9297 19.4927C13.9422 19.4606 13.9885 19.4404 14.0233 19.4528C14.0645 19.4676 14.0869 19.5088 14.1012 19.5488C14.1454 19.6724 14.1075 19.7286 14.0163 19.8076C13.8158 19.9811 13.6034 20.1419 13.3814 20.2884ZM13.6741 22.1857C13.6932 22.1402 13.7144 22.0958 13.7327 22.0499C13.7726 22.078 13.7759 22.1505 13.6741 22.1857ZM13.033 21.238C13.1017 21.261 13.1236 21.3037 13.5402 21.8135C13.4997 21.9202 13.4599 22.0272 13.4153 22.1319C13.32 22.0009 13.1487 21.6416 13.0621 21.4227C13.039 21.3643 13.0167 21.3011 13.033 21.238ZM12.3816 20.2213C12.3712 20.215 12.3609 20.2081 12.353 20.1989C12.3377 20.1812 12.355 20.1683 12.3722 20.153C12.3822 20.1543 12.393 20.1528 12.4026 20.1547C12.7857 20.2299 12.8479 20.2369 13.0849 20.1653C13.0943 20.1855 13.0708 20.2074 13.0498 20.2194C12.8425 20.3393 12.5727 20.3401 12.3816 20.2213ZM11.6401 23.3352C11.3045 23.2775 10.5187 23.4402 9.97355 22.7818C9.72708 22.4845 9.6196 22.1055 9.671 21.7149L9.94456 19.6372C10.0547 18.8002 10.8502 18.1571 11.7203 18.2075L12.3302 18.242C12.8508 18.2712 13.3208 18.5451 13.5585 19.0358C13.4734 19.0129 13.2322 18.9974 12.1951 18.9307C11.479 18.8905 10.8185 19.4232 10.7275 20.1147L10.5882 21.1733C10.4972 21.8647 11.0087 22.4633 11.7248 22.5035C12.7731 22.5446 12.8386 22.6053 13.1854 22.5308C12.8664 23.0392 12.2721 23.374 11.6401 23.3352ZM11.5248 19.3975C11.4954 19.3811 11.4878 19.3347 11.5102 19.3038C11.5368 19.2672 11.5851 19.2522 11.6299 19.2446C11.7657 19.2216 11.8137 19.2619 11.8704 19.362C11.9916 19.5757 12.0965 19.7987 12.184 20.0286C12.2064 20.0874 12.2278 20.1509 12.2107 20.2138C12.1617 20.1967 12.1279 20.1555 12.0966 20.1161C11.906 19.8766 11.7154 19.6371 11.5248 19.3975ZM12.0367 21.0854C12.0206 21.1598 12.0032 21.1623 11.2928 21.95C11.2799 21.982 11.2334 22.0017 11.1988 21.9888C11.1578 21.9736 11.136 21.9321 11.1222 21.8919C11.0795 21.7672 11.1187 21.7113 11.2103 21.6339C11.4128 21.4626 11.627 21.3041 11.8507 21.1601C11.9079 21.1233 11.9701 21.0862 12.0367 21.0854ZM13.7471 23.3475C13.5625 23.2993 13.3923 23.2047 13.2362 23.0682C13.2994 22.9624 13.376 22.8554 13.5894 22.3818C13.7364 22.2989 13.8683 22.1917 13.9773 22.065C14.0944 22.1115 14.2022 22.1342 14.3278 22.1342C15.7537 22.1342 17.7215 19.1475 18.9348 15.0564C19.9304 11.6938 20.1093 8.55676 19.3756 7.25012C19.1889 6.91826 18.9504 6.71087 18.6626 6.63308C17.4229 6.30489 15.6642 8.56525 14.3789 11.9791C14.3078 11.9423 14.2303 11.917 14.1495 11.9005C14.1017 11.6241 14.0489 11.3449 13.988 11.0638C15.8927 6.44534 18.7152 3.89257 20.0237 6.21308C20.9441 7.85937 20.8145 11.4864 19.7022 15.2431C18.2322 20.1975 15.5619 23.8375 13.7471 23.3475ZM19.8481 20.7605L19.3383 21.7115C19.0053 22.3324 19.2723 23.0602 19.9315 23.3288C20.9074 23.7075 20.9426 23.7815 21.2884 23.8242C20.8068 24.1971 20.1331 24.3209 19.5501 24.0834L18.9886 23.8548C18.2119 23.5381 17.8788 22.6801 18.2812 21.9293L19.2818 20.0631C19.6863 19.3091 20.6674 18.9615 21.4684 19.2871L22.0297 19.5157C22.4988 19.7069 22.8499 20.109 22.897 20.6578C22.7034 20.5257 22.6122 20.5199 21.6521 20.1196C20.9928 19.8511 20.181 20.1395 19.8481 20.7605ZM21.2489 21.1488C21.2489 21.2112 21.2463 21.2779 21.2077 21.3316C21.1515 21.2867 21.1599 21.278 20.8545 20.3428C20.8328 20.3179 20.8422 20.2718 20.8743 20.25C20.9124 20.2241 20.9633 20.2255 21.0081 20.2328C21.0596 20.2412 21.1121 20.2572 21.1451 20.2933C21.1764 20.3278 21.1852 20.3753 21.1924 20.4207C21.2299 20.6608 21.2488 20.9043 21.2489 21.1488ZM20.7322 22.0953C20.6936 22.1553 20.6977 22.1436 19.7232 22.669C19.6996 22.6949 19.6488 22.6985 19.6209 22.6752C19.5878 22.6477 19.5821 22.6016 19.5835 22.5594C19.588 22.427 19.6466 22.3878 19.7586 22.3451C19.8875 22.296 20.5796 22.045 20.7322 22.0953ZM21.9627 23.6369C21.8981 23.6818 21.7451 23.6542 21.6913 23.5966C21.604 23.5031 21.5778 22.8696 21.5761 22.743C21.5752 22.6805 21.5769 22.6139 21.6148 22.5599C21.6717 22.6041 21.6628 22.6108 21.9813 23.5439C22.0033 23.5685 21.9946 23.6148 21.9627 23.6369ZM21.3657 21.3937C21.3298 21.3483 21.3453 21.3411 21.3814 21.3264C21.7577 21.5172 21.7329 21.5564 22.0473 21.5675C22.053 21.6431 21.5911 21.6782 21.3657 21.3937ZM23.0514 21.5311C22.9153 21.5846 22.2329 21.8397 22.0805 21.7914C22.1183 21.7311 22.1129 21.7435 23.0826 21.207C23.1059 21.1808 23.1566 21.1767 23.1849 21.1996C23.2184 21.2268 23.2247 21.2728 23.2238 21.315C23.2212 21.4469 23.1636 21.4869 23.0514 21.5311ZM23.3162 21.1787C23.2778 21.0825 23.2231 20.9936 23.1586 20.9103C23.2206 20.1918 22.8084 19.5533 22.1275 19.2757L21.5662 19.0471C20.6461 18.6716 19.5184 19.0732 19.0534 19.9406L18.0529 21.8068C17.5831 22.6831 17.9583 23.7146 18.8909 24.0948C19.3373 24.2527 19.8139 24.5924 20.6235 24.4144C20.0861 24.7529 19.5311 24.8873 18.8544 24.8538C17.3468 24.7758 15.6862 24.1886 14.2616 23.6399C16.1721 23.4253 18.5608 19.9987 19.9511 15.3183C21.0841 11.4994 21.2033 7.78937 20.2493 6.08602C20.1574 5.92138 20.0556 5.7789 19.9462 5.6544C20.9569 5.81859 22.0147 6.02345 23.0244 6.32015C22.3719 6.50389 21.8886 7.06742 21.8606 7.79513L21.7852 9.7535C21.7479 10.7166 22.5242 11.6111 23.5155 11.7473L24.039 11.8192C24.1256 11.8311 24.2114 11.8372 24.2962 11.8372C24.9691 11.8372 25.5854 11.4576 25.8273 10.796C25.9157 10.7547 25.9978 10.7041 26.0715 10.643C26.1036 11.5641 26.0227 12.4975 25.8794 13.3934C25.7179 13.0927 25.4414 12.8855 25.1167 12.7988L22.9769 12.2271C22.3215 12.0524 21.6371 12.4185 21.4517 13.0431L20.3857 16.6365C20.2983 16.9312 20.3339 17.2429 20.4861 17.5143C20.761 18.0055 21.2167 18.0833 21.2432 18.0964C23.4196 18.6632 23.4209 18.7116 23.7158 18.7116C24.0245 18.7116 24.3172 18.5975 24.5421 18.4052C24.2176 19.3087 23.8172 20.2642 23.3162 21.1787ZM23.4498 18.4172L21.3101 17.8457C20.7777 17.7036 20.4944 17.1817 20.6343 16.7105L21.7003 13.117C21.8461 12.6253 22.388 12.338 22.9101 12.4777L25.0498 13.0494C25.4967 13.1688 25.805 13.5772 25.7546 14.0326L23.4755 13.4239C23.0249 13.3035 22.5525 13.5548 22.4257 13.9824L21.7743 16.1781C21.6474 16.6056 21.9123 17.0539 22.3629 17.1743L24.6559 17.7868C24.506 18.2728 23.9673 18.5548 23.4498 18.4172ZM24.7962 15.1088C24.8193 15.1904 24.3359 15.2941 24.0289 15.0113C24.0125 14.9963 23.9897 14.975 24.0016 14.9563C24.0053 14.9506 24.0109 14.9472 24.0304 14.9355C24.4589 15.0868 24.4478 15.1402 24.7962 15.1088ZM23.2455 13.9297C23.2167 13.9054 23.2162 13.8536 23.2456 13.8253C23.2805 13.7918 23.3351 13.7864 23.3846 13.7883C23.5344 13.7938 23.5796 13.8478 23.6239 13.9691C23.7182 14.2269 23.7934 14.4911 23.8487 14.759C23.8628 14.8274 23.8752 14.9008 23.8461 14.9648C23.7961 14.9353 23.7668 14.8834 23.7397 14.8337C23.5749 14.5324 23.4102 14.2311 23.2455 13.9297ZM23.5108 15.8664C23.4814 15.9418 23.4694 15.936 22.5627 16.6324C22.5433 16.6641 22.4899 16.6749 22.4548 16.6532C22.4132 16.6276 22.3967 16.5779 22.3886 16.5315C22.3639 16.3879 22.4144 16.3364 22.5273 16.2728C22.7746 16.1333 23.0323 16.0105 23.2977 15.9053C23.3655 15.8784 23.4388 15.8523 23.5108 15.8664ZM25.1734 17.3876C25.139 17.4215 25.0845 17.4275 25.0349 17.4262C24.8847 17.4222 24.8392 17.3685 24.7934 17.2482C24.6958 16.9914 24.6172 16.7281 24.5585 16.4609C24.5435 16.3926 24.5302 16.3194 24.5585 16.255C24.6292 16.2957 24.6224 16.3064 25.1723 17.2831C25.2014 17.3071 25.2025 17.3589 25.1734 17.3876ZM25.9808 14.8301C25.9101 14.9549 25.2287 15.2534 25.0948 15.3083C25.0273 15.3359 24.9544 15.363 24.8823 15.3496C24.9108 15.2736 24.9184 15.2831 25.8205 14.5728C25.8395 14.5409 25.8928 14.5294 25.9282 14.5507C25.9701 14.5759 25.9872 14.6254 25.9958 14.6718C26.0057 14.725 26.0077 14.7825 25.9808 14.8301Z" fill="black"/>
<path d="M7.8265 15.0379C7.48521 10.5449 6.05764 7.09677 4.56209 7.20666C4.26283 7.22716 3.98268 7.38591 3.7295 7.67859C2.73803 8.82424 2.24926 11.9285 2.51321 15.4032C2.94185 21.049 5.02668 24.593 6.61021 22.7625C7.60168 21.6168 8.09045 18.5125 7.8265 15.0379ZM6.41412 22.5928C6.20791 22.8313 5.98776 22.9602 5.7599 22.9756C4.45879 23.0655 3.09084 19.5878 2.77171 15.3834C2.5603 12.6 2.85152 9.99812 3.48945 8.57353C3.4879 8.6461 3.45179 8.70331 3.41764 8.77038C3.49556 8.66822 3.6006 8.59315 3.68487 8.49881C3.76111 8.41342 3.86669 8.34737 3.97281 8.30053C4.47873 8.07732 5.14998 8.24369 5.61831 8.91115C5.84386 9.23256 5.97795 9.60272 6.10423 9.9698C6.48846 11.0871 6.82301 12.2233 7.02512 13.3842C7.21503 14.4751 7.48854 15.5503 7.63358 16.6505C7.65624 19.3587 7.19804 21.6871 6.41412 22.5928Z" fill="black"/>
<path d="M14.0485 5.12972C14.1401 5.12972 14.2037 5.03642 14.1682 4.95046C13.9392 4.39675 13.6636 3.85494 13.3492 3.33946C13.312 3.27844 13.2318 3.25895 13.1711 3.29642C13.1099 3.33364 13.0906 3.41339 13.1279 3.47466C13.9514 4.82393 13.8471 5.12972 14.0485 5.12972Z" fill="black"/>
<path d="M14.5866 4.14734C14.6572 4.13544 14.7047 4.0686 14.6928 3.99796L14.4807 2.74318C14.4687 2.67255 14.4016 2.62393 14.3312 2.63685C14.2607 2.64875 14.2131 2.71584 14.225 2.78622L14.4371 4.041C14.4492 4.11214 14.5169 4.15936 14.5866 4.14734Z" fill="black"/>
<path d="M15.1693 4.84628C15.3767 4.84628 15.2479 4.5535 15.9497 3.29857C15.9847 3.23603 15.9623 3.15704 15.8999 3.1221C15.8373 3.08691 15.7583 3.10944 15.7234 3.17198C15.4548 3.65252 15.2272 4.15787 15.0469 4.67386C15.0173 4.7588 15.0809 4.84628 15.1693 4.84628Z" fill="black"/>
<path d="M37.89 20V7.4H43.542C44.994 7.4 46.11 7.694 46.89 8.282C47.67 8.858 48.06 9.65 48.06 10.658C48.06 11.342 47.904 11.918 47.592 12.386C47.292 12.854 46.884 13.214 46.368 13.466C45.852 13.718 45.294 13.844 44.694 13.844L45.018 13.304C45.738 13.304 46.374 13.43 46.926 13.682C47.478 13.934 47.916 14.306 48.24 14.798C48.564 15.278 48.726 15.878 48.726 16.598C48.726 17.678 48.318 18.518 47.502 19.118C46.698 19.706 45.498 20 43.902 20H37.89ZM39.69 18.542H43.83C44.826 18.542 45.588 18.374 46.116 18.038C46.644 17.702 46.908 17.174 46.908 16.454C46.908 15.722 46.644 15.188 46.116 14.852C45.588 14.516 44.826 14.348 43.83 14.348H39.528V12.89H43.38C44.292 12.89 45 12.722 45.504 12.386C46.008 12.05 46.26 11.546 46.26 10.874C46.26 10.202 46.008 9.698 45.504 9.362C45 9.026 44.292 8.858 43.38 8.858H39.69V18.542ZM51.261 20V10.46H52.917V13.052L52.755 12.404C53.019 11.744 53.463 11.24 54.087 10.892C54.711 10.544 55.479 10.37 56.391 10.37V12.044C56.319 12.032 56.247 12.026 56.175 12.026C56.115 12.026 56.055 12.026 55.995 12.026C55.071 12.026 54.339 12.302 53.799 12.854C53.259 13.406 52.989 14.204 52.989 15.248V20H51.261ZM63.7748 20V17.984L63.6848 17.606V14.168C63.6848 13.436 63.4688 12.872 63.0368 12.476C62.6168 12.068 61.9808 11.864 61.1288 11.864C60.5648 11.864 60.0128 11.96 59.4728 12.152C58.9328 12.332 58.4768 12.578 58.1048 12.89L57.3848 11.594C57.8768 11.198 58.4648 10.898 59.1488 10.694C59.8448 10.478 60.5708 10.37 61.3268 10.37C62.6348 10.37 63.6428 10.688 64.3508 11.324C65.0588 11.96 65.4128 12.932 65.4128 14.24V20H63.7748ZM60.6428 20.108C59.9348 20.108 59.3108 19.988 58.7708 19.748C58.2428 19.508 57.8348 19.178 57.5468 18.758C57.2588 18.326 57.1148 17.84 57.1148 17.3C57.1148 16.784 57.2348 16.316 57.4748 15.896C57.7268 15.476 58.1288 15.14 58.6808 14.888C59.2448 14.636 60.0008 14.51 60.9488 14.51H63.9728V15.752H61.0208C60.1568 15.752 59.5748 15.896 59.2748 16.184C58.9748 16.472 58.8248 16.82 58.8248 17.228C58.8248 17.696 59.0108 18.074 59.3828 18.362C59.7548 18.638 60.2708 18.776 60.9308 18.776C61.5788 18.776 62.1428 18.632 62.6228 18.344C63.1148 18.056 63.4688 17.636 63.6848 17.084L64.0268 18.272C63.7988 18.836 63.3968 19.286 62.8208 19.622C62.2448 19.946 61.5188 20.108 60.6428 20.108ZM72.7687 20.108C71.7967 20.108 70.9267 19.898 70.1587 19.478C69.4027 19.058 68.8087 18.482 68.3767 17.75C67.9447 17.018 67.7287 16.178 67.7287 15.23C67.7287 14.282 67.9447 13.442 68.3767 12.71C68.8087 11.978 69.4027 11.408 70.1587 11C70.9267 10.58 71.7967 10.37 72.7687 10.37C73.6327 10.37 74.4007 10.544 75.0727 10.892C75.7567 11.228 76.2847 11.732 76.6567 12.404L75.3427 13.25C75.0307 12.782 74.6467 12.44 74.1907 12.224C73.7467 11.996 73.2667 11.882 72.7507 11.882C72.1267 11.882 71.5687 12.02 71.0767 12.296C70.5847 12.572 70.1947 12.962 69.9067 13.466C69.6187 13.958 69.4747 14.546 69.4747 15.23C69.4747 15.914 69.6187 16.508 69.9067 17.012C70.1947 17.516 70.5847 17.906 71.0767 18.182C71.5687 18.458 72.1267 18.596 72.7507 18.596C73.2667 18.596 73.7467 18.488 74.1907 18.272C74.6467 18.044 75.0307 17.696 75.3427 17.228L76.6567 18.056C76.2847 18.716 75.7567 19.226 75.0727 19.586C74.4007 19.934 73.6327 20.108 72.7687 20.108ZM83.0012 20.108C81.9812 20.108 81.0812 19.898 80.3012 19.478C79.5332 19.058 78.9332 18.482 78.5012 17.75C78.0812 17.018 77.8712 16.178 77.8712 15.23C77.8712 14.282 78.0752 13.442 78.4832 12.71C78.9032 11.978 79.4732 11.408 80.1932 11C80.9252 10.58 81.7472 10.37 82.6592 10.37C83.5832 10.37 84.3992 10.574 85.1072 10.982C85.8152 11.39 86.3672 11.966 86.7632 12.71C87.1712 13.442 87.3752 14.3 87.3752 15.284C87.3752 15.356 87.3692 15.44 87.3572 15.536C87.3572 15.632 87.3512 15.722 87.3392 15.806H79.2212V14.564H86.4392L85.7372 14.996C85.7492 14.384 85.6232 13.838 85.3592 13.358C85.0952 12.878 84.7292 12.506 84.2612 12.242C83.8052 11.966 83.2712 11.828 82.6592 11.828C82.0592 11.828 81.5252 11.966 81.0572 12.242C80.5892 12.506 80.2232 12.884 79.9592 13.376C79.6952 13.856 79.5632 14.408 79.5632 15.032V15.32C79.5632 15.956 79.7072 16.526 79.9952 17.03C80.2952 17.522 80.7092 17.906 81.2372 18.182C81.7652 18.458 82.3712 18.596 83.0552 18.596C83.6192 18.596 84.1292 18.5 84.5852 18.308C85.0532 18.116 85.4612 17.828 85.8092 17.444L86.7632 18.56C86.3312 19.064 85.7912 19.448 85.1432 19.712C84.5072 19.976 83.7932 20.108 83.0012 20.108ZM89.7747 20V6.644H91.5027V20H89.7747ZM99.0501 20.108C98.0301 20.108 97.1301 19.898 96.3501 19.478C95.5821 19.058 94.9821 18.482 94.5501 17.75C94.1301 17.018 93.9201 16.178 93.9201 15.23C93.9201 14.282 94.1241 13.442 94.5321 12.71C94.9521 11.978 95.5221 11.408 96.2421 11C96.9741 10.58 97.7961 10.37 98.7081 10.37C99.6321 10.37 100.448 10.574 101.156 10.982C101.864 11.39 102.416 11.966 102.812 12.71C103.22 13.442 103.424 14.3 103.424 15.284C103.424 15.356 103.418 15.44 103.406 15.536C103.406 15.632 103.4 15.722 103.388 15.806H95.2701V14.564H102.488L101.786 14.996C101.798 14.384 101.672 13.838 101.408 13.358C101.144 12.878 100.778 12.506 100.31 12.242C99.8541 11.966 99.3201 11.828 98.7081 11.828C98.1081 11.828 97.5741 11.966 97.1061 12.242C96.6381 12.506 96.2721 12.884 96.0081 13.376C95.7441 13.856 95.6121 14.408 95.6121 15.032V15.32C95.6121 15.956 95.7561 16.526 96.0441 17.03C96.3441 17.522 96.7581 17.906 97.2861 18.182C97.8141 18.458 98.4201 18.596 99.1041 18.596C99.6681 18.596 100.178 18.5 100.634 18.308C101.102 18.116 101.51 17.828 101.858 17.444L102.812 18.56C102.38 19.064 101.84 19.448 101.192 19.712C100.556 19.976 99.8421 20.108 99.0501 20.108ZM109.1 20.108C108.14 20.108 107.396 19.85 106.868 19.334C106.34 18.818 106.076 18.08 106.076 17.12V8.372H107.804V17.048C107.804 17.564 107.93 17.96 108.182 18.236C108.446 18.512 108.818 18.65 109.298 18.65C109.838 18.65 110.288 18.5 110.648 18.2L111.188 19.442C110.924 19.67 110.606 19.838 110.234 19.946C109.874 20.054 109.496 20.108 109.1 20.108ZM104.456 11.882V10.46H110.54V11.882H104.456ZM116.013 20.108C115.221 20.108 114.465 20 113.745 19.784C113.037 19.568 112.479 19.304 112.071 18.992L112.791 17.624C113.199 17.9 113.703 18.134 114.303 18.326C114.903 18.518 115.515 18.614 116.139 18.614C116.943 18.614 117.519 18.5 117.867 18.272C118.227 18.044 118.407 17.726 118.407 17.318C118.407 17.018 118.299 16.784 118.083 16.616C117.867 16.448 117.579 16.322 117.219 16.238C116.871 16.154 116.481 16.082 116.049 16.022C115.617 15.95 115.185 15.866 114.753 15.77C114.321 15.662 113.925 15.518 113.565 15.338C113.205 15.146 112.917 14.888 112.701 14.564C112.485 14.228 112.377 13.784 112.377 13.232C112.377 12.656 112.539 12.152 112.863 11.72C113.187 11.288 113.643 10.958 114.231 10.73C114.831 10.49 115.539 10.37 116.355 10.37C116.979 10.37 117.609 10.448 118.245 10.604C118.893 10.748 119.421 10.958 119.829 11.234L119.091 12.602C118.659 12.314 118.209 12.116 117.741 12.008C117.273 11.9 116.805 11.846 116.337 11.846C115.581 11.846 115.017 11.972 114.645 12.224C114.273 12.464 114.087 12.776 114.087 13.16C114.087 13.484 114.195 13.736 114.411 13.916C114.639 14.084 114.927 14.216 115.275 14.312C115.635 14.408 116.031 14.492 116.463 14.564C116.895 14.624 117.327 14.708 117.759 14.816C118.191 14.912 118.581 15.05 118.929 15.23C119.289 15.41 119.577 15.662 119.793 15.986C120.021 16.31 120.135 16.742 120.135 17.282C120.135 17.858 119.967 18.356 119.631 18.776C119.295 19.196 118.821 19.526 118.209 19.766C117.597 19.994 116.865 20.108 116.013 20.108Z" fill="black"/>
</svg>
