<svg width="111" height="22" viewBox="0 0 111 22" fill="none" xmlns="http://www.w3.org/2000/svg">
<path d="M8.76567 18.7141C8.7694 19.1153 8.88114 19.5082 9.08915 19.8514C9.29716 20.1946 9.59377 20.4755 9.9478 20.6644C10.3018 20.8534 10.7002 20.9435 11.1011 20.9254C11.502 20.9072 11.8906 20.7814 12.2261 20.5612C12.5616 20.3409 12.8316 20.0344 13.0077 19.6738C13.1838 19.3132 13.2595 18.9118 13.2269 18.5118C13.1944 18.1118 13.0546 17.728 12.8225 17.4007C12.5903 17.0733 12.2743 16.8146 11.9075 16.6516C11.9808 16.6018 12.0321 16.5256 12.0506 16.439C12.0691 16.3524 12.0534 16.2619 12.0069 16.1865C11.9603 16.1112 11.8865 16.0567 11.8007 16.0344C11.715 16.0122 11.6239 16.0239 11.5466 16.0672C11.3644 16.1806 11.1788 16.2941 10.9897 16.4109C10.8007 16.3009 10.615 16.1875 10.4329 16.0672C10.3555 16.0239 10.2645 16.0122 10.1788 16.0344C10.093 16.0567 10.0191 16.1112 9.97259 16.1865C9.92604 16.2619 9.91038 16.3524 9.92889 16.439C9.9474 16.5256 9.99864 16.6018 10.0719 16.6516C9.67945 16.834 9.34767 17.1254 9.11609 17.4911C8.88451 17.8567 8.76288 18.2812 8.76567 18.7141ZM11 17.1431C11.3117 17.1383 11.6178 17.2264 11.8793 17.3961C12.1408 17.5658 12.3458 17.8094 12.4684 18.096C12.591 18.3826 12.6256 18.6992 12.5677 19.0055C12.5099 19.3118 12.3622 19.594 12.1435 19.8161C11.9248 20.0382 11.6449 20.1902 11.3395 20.2528C11.0342 20.3154 10.7171 20.2857 10.4286 20.1676C10.1402 20.0494 9.89339 19.8481 9.71969 19.5893C9.54598 19.3304 9.45321 19.0258 9.45317 18.7141C9.45042 18.3007 9.61175 17.9032 9.90175 17.6087C10.1918 17.3142 10.5867 17.1467 11 17.1431Z" fill="black"/>
<path d="M19.2189 9.62487L19.0848 9.78644C18.7754 10.1302 18.4454 10.5014 18.1017 10.8555C18.0544 10.9038 18.0224 10.9649 18.0096 11.0312C17.9968 11.0976 18.0039 11.1662 18.03 11.2286C18.056 11.291 18.0999 11.3443 18.156 11.3818C18.2122 11.4194 18.2782 11.4396 18.3457 11.4399C18.3921 11.4397 18.4378 11.4302 18.4804 11.4119C18.5229 11.3935 18.5613 11.3668 18.5932 11.3333C18.937 10.9689 19.2807 10.6011 19.6039 10.2367L19.7586 10.0511C19.8151 9.97956 19.8409 9.88847 19.8302 9.79789C19.8196 9.70732 19.7734 9.62468 19.7018 9.56815C19.6664 9.54017 19.6258 9.51943 19.5824 9.50714C19.5389 9.49484 19.4935 9.49122 19.4486 9.49649C19.358 9.50712 19.2754 9.55331 19.2189 9.62487Z" fill="black"/>
<path d="M18.2427 2.59519C18.3007 2.6372 18.3704 2.66004 18.4421 2.6605C18.5155 2.66106 18.5871 2.63813 18.6465 2.59506C18.7059 2.55199 18.75 2.49104 18.7722 2.42113C18.7945 2.35122 18.7938 2.27601 18.7703 2.20651C18.7468 2.13701 18.7016 2.07687 18.6415 2.03487C18.1492 1.68237 17.6005 1.41617 17.019 1.24769C16.9355 1.23561 16.8506 1.25461 16.7803 1.30106C16.7099 1.34751 16.6591 1.41818 16.6375 1.49964C16.6159 1.5811 16.6249 1.66767 16.6629 1.7429C16.7009 1.81813 16.7652 1.87677 16.8436 1.90769C17.345 2.05742 17.8179 2.28978 18.2427 2.59519Z" fill="black"/>
<path d="M4.99459 1.24483C4.41309 1.41299 3.86362 1.67669 3.36865 2.02514C3.33147 2.05119 3.29982 2.08435 3.27553 2.1227C3.25124 2.16105 3.23478 2.20383 3.22711 2.24858C3.21944 2.29332 3.22071 2.33914 3.23084 2.38339C3.24098 2.42764 3.25977 2.46945 3.28615 2.50639C3.31812 2.55129 3.36041 2.58785 3.40947 2.61298C3.45853 2.6381 3.51291 2.65106 3.56803 2.65077C3.64396 2.65427 3.7189 2.63251 3.78115 2.58889C4.21197 2.283 4.69055 2.05068 5.1974 1.90139C5.24288 1.89092 5.28575 1.8713 5.3234 1.84373C5.36104 1.81615 5.39268 1.7812 5.41639 1.741C5.44009 1.7008 5.45536 1.6562 5.46126 1.60991C5.46717 1.56362 5.46359 1.51661 5.45074 1.47174C5.43789 1.42688 5.41603 1.38511 5.38651 1.34896C5.35699 1.31282 5.32042 1.28306 5.27903 1.26151C5.23764 1.23996 5.19229 1.22706 5.14576 1.2236C5.09922 1.22014 5.05246 1.2262 5.00834 1.24139L4.99459 1.24483Z" fill="black"/>
<path d="M1.50923 5.33187C1.54341 5.33705 1.57818 5.33705 1.61235 5.33187C1.68527 5.33158 1.75621 5.30811 1.81491 5.26486C1.87362 5.2216 1.91704 5.1608 1.93892 5.09124C2.09648 4.58596 2.33568 4.10987 2.64704 3.68187C2.68153 3.64607 2.70785 3.60322 2.72418 3.55627C2.7405 3.50932 2.74645 3.45938 2.74162 3.40991C2.73678 3.36044 2.72127 3.3126 2.69616 3.2697C2.67104 3.2268 2.63693 3.18986 2.59616 3.16142C2.55539 3.13298 2.50893 3.11373 2.46 3.10498C2.41107 3.09623 2.36082 3.09819 2.31272 3.11074C2.26462 3.12329 2.21982 3.14612 2.1814 3.17766C2.14297 3.2092 2.11185 3.2487 2.09017 3.29343C1.73437 3.78167 1.46144 4.3252 1.28235 4.90218C1.25551 4.98924 1.26432 5.08341 1.30686 5.16398C1.3494 5.24455 1.42219 5.30493 1.50923 5.33187Z" fill="black"/>
<path d="M11.8558 1.71875C11.947 1.71875 12.0344 1.68253 12.0989 1.61807C12.1634 1.5536 12.1996 1.46617 12.1996 1.375C12.1996 1.28383 12.1634 1.1964 12.0989 1.13193C12.0344 1.06747 11.947 1.03125 11.8558 1.03125H10.1577C10.0665 1.03125 9.97911 1.06747 9.91465 1.13193C9.85018 1.1964 9.81396 1.28383 9.81396 1.375C9.81396 1.46617 9.85018 1.5536 9.91465 1.61807C9.97911 1.68253 10.0665 1.71875 10.1577 1.71875H11.8558Z" fill="black"/>
<path d="M15.2489 1.71875C15.3401 1.71875 15.4275 1.68253 15.492 1.61807C15.5564 1.5536 15.5927 1.46617 15.5927 1.375C15.5927 1.28383 15.5564 1.1964 15.492 1.13193C15.4275 1.06747 15.3401 1.03125 15.2489 1.03125H13.5508C13.4596 1.03125 13.3722 1.06747 13.3077 1.13193C13.2432 1.1964 13.207 1.28383 13.207 1.375C13.207 1.46617 13.2432 1.5536 13.3077 1.61807C13.3722 1.68253 13.4596 1.71875 13.5508 1.71875H15.2489Z" fill="black"/>
<path d="M1.71875 6.66895C1.71875 6.57778 1.68253 6.49034 1.61807 6.42588C1.5536 6.36141 1.46617 6.3252 1.375 6.3252C1.28383 6.3252 1.1964 6.36141 1.13193 6.42588C1.06747 6.49034 1.03125 6.57778 1.03125 6.66895C1.04883 7.27381 1.16493 7.87177 1.375 8.43926C1.39902 8.50569 1.44293 8.56312 1.50074 8.60371C1.55856 8.64431 1.62748 8.6661 1.69813 8.66613C1.73795 8.66569 1.77743 8.65872 1.815 8.64551C1.90068 8.61448 1.97053 8.55071 2.0092 8.4682C2.04788 8.38569 2.05221 8.29121 2.02125 8.20551C1.83986 7.71252 1.73776 7.1939 1.71875 6.66895Z" fill="black"/>
<path d="M20.6251 6.34588C20.534 6.34588 20.4465 6.3821 20.3821 6.44657C20.3176 6.51103 20.2814 6.59847 20.2814 6.68963C20.2681 7.22213 20.1695 7.74904 19.9892 8.25026C19.9582 8.33596 19.9626 8.43045 20.0012 8.51295C20.0399 8.59546 20.1098 8.65923 20.1954 8.69026C20.2811 8.72122 20.3756 8.71689 20.4581 8.67821C20.5406 8.63954 20.6044 8.56969 20.6354 8.48401C20.8438 7.91605 20.9599 7.31837 20.9792 6.7137C20.9826 6.66569 20.9759 6.61751 20.9595 6.57227C20.9431 6.52702 20.9173 6.48573 20.884 6.45106C20.8506 6.41639 20.8103 6.38911 20.7657 6.37099C20.7211 6.35287 20.6732 6.34432 20.6251 6.34588Z" fill="black"/>
<path d="M3.64355 11.4125C3.71141 11.4129 3.77788 11.3932 3.83457 11.3559C3.89125 11.3186 3.93563 11.2653 3.9621 11.2028C3.98856 11.1404 3.99594 11.0714 3.9833 11.0047C3.97065 10.9381 3.93855 10.8766 3.89105 10.8282C3.5473 10.4844 3.22417 10.1235 2.9148 9.76941C2.86667 9.71441 2.81855 9.65597 2.77386 9.59753C2.71733 9.52596 2.6347 9.47978 2.54412 9.46915C2.45355 9.45851 2.36246 9.48429 2.29089 9.54081C2.21932 9.59734 2.17314 9.67997 2.1625 9.77055C2.15187 9.86112 2.17765 9.95221 2.23417 10.0238L2.39573 10.2197C2.71198 10.5841 3.04886 10.9485 3.39605 11.306C3.428 11.3395 3.46639 11.3662 3.50892 11.3845C3.55145 11.4028 3.59724 11.4124 3.64355 11.4125Z" fill="black"/>
<path d="M12.8735 15.6269C12.9055 15.6729 12.9481 15.7104 12.9979 15.7362C13.0476 15.7619 13.1029 15.7751 13.1589 15.7747C13.2278 15.7738 13.2948 15.7523 13.3514 15.7128C13.4614 15.6406 13.5679 15.5616 13.6779 15.4859V15.5375C13.6808 15.9566 13.8016 16.3664 14.0264 16.7202C14.2512 17.0739 14.5709 17.3573 14.9491 17.538C15.3273 17.7186 15.7486 17.7893 16.165 17.7419C16.5815 17.6945 16.9762 17.5309 17.304 17.2698C17.6319 17.0087 17.8797 16.6607 18.0192 16.2655C18.1587 15.8703 18.1842 15.4438 18.0929 15.0347C18.0015 14.6257 17.7969 14.2506 17.5025 13.9523C17.2081 13.654 16.8357 13.4445 16.4279 13.3478C16.7476 13.0728 17.0639 12.7944 17.3664 12.5159C17.3986 12.484 17.4241 12.446 17.4416 12.4041C17.459 12.3622 17.468 12.3172 17.468 12.2719C17.468 12.2265 17.459 12.1816 17.4416 12.1397C17.4241 12.0978 17.3986 12.0598 17.3664 12.0278C17.3042 11.9614 17.2184 11.9224 17.1276 11.9192C17.0367 11.9159 16.9483 11.9488 16.8817 12.0106C16.5001 12.375 16.0739 12.7566 15.6407 13.1209C15.5831 13.1721 15.5444 13.2411 15.5307 13.3169H15.4517C15.3605 13.3342 15.2799 13.387 15.2277 13.4637C15.1755 13.5404 15.1559 13.6348 15.1732 13.7259C15.1906 13.8171 15.2434 13.8976 15.3201 13.9499C15.3968 14.0021 15.4911 14.0217 15.5823 14.0044C15.6953 13.9807 15.8106 13.9692 15.926 13.97C16.2684 13.9633 16.6036 14.0682 16.8811 14.2688C17.1587 14.4694 17.3634 14.7548 17.4644 15.082C17.5654 15.4092 17.5573 15.7603 17.4412 16.0825C17.3251 16.4046 17.1073 16.6802 16.8208 16.8677C16.5343 17.0552 16.1945 17.1444 15.8529 17.1219C15.5112 17.0993 15.1861 16.9662 14.9267 16.7427C14.6674 16.5191 14.4877 16.2173 14.415 15.8827C14.3423 15.548 14.3804 15.1989 14.5235 14.8878L14.7573 14.7125C14.7978 14.6873 14.8326 14.6539 14.8595 14.6144C14.8864 14.575 14.9048 14.5304 14.9135 14.4835C14.9222 14.4365 14.9211 14.3883 14.9101 14.3419C14.8992 14.2954 14.8787 14.2517 14.8499 14.2136C14.8212 14.1755 14.7848 14.1439 14.7431 14.1206C14.7015 14.0973 14.6554 14.083 14.6079 14.0785C14.5604 14.074 14.5124 14.0795 14.4671 14.0945C14.4218 14.1096 14.3802 14.1339 14.3448 14.1659C13.9014 14.5097 13.4442 14.8294 12.9698 15.1456C12.9315 15.1706 12.8986 15.203 12.873 15.2408C12.8474 15.2787 12.8296 15.3212 12.8206 15.366C12.8117 15.4108 12.8117 15.457 12.8208 15.5018C12.8299 15.5466 12.8478 15.5891 12.8735 15.6269Z" fill="black"/>
<path d="M20.3947 5.35955C20.4496 5.36192 20.5043 5.3511 20.5541 5.32799C20.604 5.30488 20.6476 5.27015 20.6813 5.22672C20.7149 5.18329 20.7377 5.13242 20.7476 5.07837C20.7576 5.02433 20.7544 4.96869 20.7385 4.91611C20.5614 4.33856 20.2908 3.79394 19.9375 3.30392C19.8842 3.22962 19.8035 3.17955 19.7133 3.16472C19.623 3.14989 19.5306 3.17152 19.4563 3.22486C19.382 3.27819 19.3319 3.35886 19.3171 3.44911C19.3022 3.53936 19.3239 3.63181 19.3772 3.70611C19.6835 4.13546 19.9158 4.61297 20.0647 5.11892C20.0868 5.18904 20.1307 5.25025 20.1901 5.29355C20.2495 5.33686 20.3212 5.35999 20.3947 5.35955Z" fill="black"/>
<path d="M8.46326 1.71875C8.55443 1.71875 8.64186 1.68253 8.70633 1.61807C8.7708 1.5536 8.80701 1.46617 8.80701 1.375C8.80701 1.28383 8.7708 1.1964 8.70633 1.13193C8.64186 1.06747 8.55443 1.03125 8.46326 1.03125H6.76514C6.67397 1.03125 6.58653 1.06747 6.52207 1.13193C6.4576 1.1964 6.42139 1.28383 6.42139 1.375C6.42139 1.46617 6.4576 1.5536 6.52207 1.61807C6.58653 1.68253 6.67397 1.71875 6.76514 1.71875H8.46326Z" fill="black"/>
<path d="M5.09078 12.0034C5.05858 11.969 5.01965 11.9416 4.9764 11.9228C4.93316 11.9041 4.88652 11.8945 4.83939 11.8945C4.79227 11.8946 4.74565 11.9043 4.70245 11.9232C4.65925 11.942 4.62038 11.9695 4.58826 12.004C4.55613 12.0385 4.53145 12.0792 4.51573 12.1236C4.5 12.168 4.49359 12.2152 4.49687 12.2622C4.50016 12.3093 4.51307 12.3551 4.53482 12.3969C4.55656 12.4387 4.58667 12.4756 4.62328 12.5053C4.92578 12.7872 5.24203 13.0656 5.56172 13.344C5.14819 13.4379 4.76958 13.6466 4.46947 13.9462C4.16936 14.2458 3.95995 14.624 3.86534 15.0374C3.77074 15.4508 3.79479 15.8824 3.93472 16.2827C4.07465 16.683 4.32477 17.0357 4.6563 17.3C4.98783 17.5644 5.38728 17.7298 5.80867 17.7772C6.23007 17.8246 6.65627 17.752 7.03822 17.5678C7.42016 17.3836 7.74233 17.0952 7.96763 16.736C8.19293 16.3768 8.3122 15.9612 8.31172 15.5372C8.31341 15.5143 8.31341 15.4913 8.31172 15.4684L8.65547 15.7056C8.71294 15.7457 8.78131 15.7673 8.85141 15.7675C8.92752 15.768 9.00165 15.7433 9.06219 15.6971C9.12272 15.651 9.16623 15.5861 9.18589 15.5125C9.20555 15.439 9.20025 15.361 9.17083 15.2908C9.1414 15.2206 9.0895 15.1622 9.02328 15.1247C8.56609 14.8084 8.10547 14.4784 7.64828 14.1415C7.57535 14.0864 7.48349 14.0625 7.39291 14.075C7.30234 14.0876 7.22047 14.1356 7.16531 14.2086C7.11015 14.2815 7.08623 14.3734 7.0988 14.4639C7.11137 14.5545 7.15941 14.6364 7.23234 14.6915C7.30453 14.7431 7.37672 14.7947 7.44547 14.8497C7.55151 15.0632 7.60568 15.2987 7.60359 15.5372C7.6002 15.843 7.5064 16.1411 7.334 16.3937C7.1616 16.6464 6.91831 16.8424 6.63475 16.9571C6.35118 17.0719 6.04002 17.1001 5.74043 17.0384C5.44084 16.9766 5.16621 16.8276 4.95111 16.6101C4.73601 16.3927 4.59006 16.1164 4.53162 15.8162C4.47318 15.5159 4.50487 15.2051 4.6227 14.9228C4.74052 14.6405 4.93922 14.3994 5.19379 14.2298C5.44835 14.0602 5.74739 13.9697 6.05328 13.9697C6.16914 13.9689 6.28464 13.9827 6.39703 14.0109C6.48546 14.0332 6.57915 14.0195 6.65747 13.9728C6.7358 13.9261 6.79235 13.8501 6.81469 13.7617C6.83702 13.6733 6.82331 13.5796 6.77658 13.5012C6.72984 13.4229 6.6539 13.3664 6.56547 13.344L6.45547 13.3234C6.44179 13.2412 6.40058 13.166 6.33859 13.1103C5.91578 12.7493 5.49984 12.3747 5.09078 12.0034Z" fill="black"/>
<path d="M31.89 17V4.4H33.366L41.7 14.75H40.926V4.4H42.726V17H41.25L32.916 6.65H33.69V17H31.89ZM50.4934 17.108C49.4734 17.108 48.5734 16.898 47.7934 16.478C47.0254 16.058 46.4254 15.482 45.9934 14.75C45.5734 14.018 45.3634 13.178 45.3634 12.23C45.3634 11.282 45.5674 10.442 45.9754 9.71C46.3954 8.978 46.9654 8.408 47.6854 8C48.4174 7.58 49.2394 7.37 50.1514 7.37C51.0754 7.37 51.8914 7.574 52.5994 7.982C53.3074 8.39 53.8594 8.966 54.2554 9.71C54.6634 10.442 54.8674 11.3 54.8674 12.284C54.8674 12.356 54.8614 12.44 54.8494 12.536C54.8494 12.632 54.8434 12.722 54.8314 12.806H46.7134V11.564H53.9314L53.2294 11.996C53.2414 11.384 53.1154 10.838 52.8514 10.358C52.5874 9.878 52.2214 9.506 51.7534 9.242C51.2974 8.966 50.7634 8.828 50.1514 8.828C49.5514 8.828 49.0174 8.966 48.5494 9.242C48.0814 9.506 47.7154 9.884 47.4514 10.376C47.1874 10.856 47.0554 11.408 47.0554 12.032V12.32C47.0554 12.956 47.1994 13.526 47.4874 14.03C47.7874 14.522 48.2014 14.906 48.7294 15.182C49.2574 15.458 49.8634 15.596 50.5474 15.596C51.1114 15.596 51.6214 15.5 52.0774 15.308C52.5454 15.116 52.9534 14.828 53.3014 14.444L54.2554 15.56C53.8234 16.064 53.2834 16.448 52.6354 16.712C51.9994 16.976 51.2854 17.108 50.4934 17.108ZM61.4249 17.108C60.4529 17.108 59.5829 16.898 58.8149 16.478C58.0589 16.058 57.4649 15.482 57.0329 14.75C56.6009 14.018 56.3849 13.178 56.3849 12.23C56.3849 11.282 56.6009 10.442 57.0329 9.71C57.4649 8.978 58.0589 8.408 58.8149 8C59.5829 7.58 60.4529 7.37 61.4249 7.37C62.2889 7.37 63.0569 7.544 63.7289 7.892C64.4129 8.228 64.9409 8.732 65.3129 9.404L63.9989 10.25C63.6869 9.782 63.3029 9.44 62.8469 9.224C62.4029 8.996 61.9229 8.882 61.4069 8.882C60.7829 8.882 60.2249 9.02 59.7329 9.296C59.2409 9.572 58.8509 9.962 58.5629 10.466C58.2749 10.958 58.1309 11.546 58.1309 12.23C58.1309 12.914 58.2749 13.508 58.5629 14.012C58.8509 14.516 59.2409 14.906 59.7329 15.182C60.2249 15.458 60.7829 15.596 61.4069 15.596C61.9229 15.596 62.4029 15.488 62.8469 15.272C63.3029 15.044 63.6869 14.696 63.9989 14.228L65.3129 15.056C64.9409 15.716 64.4129 16.226 63.7289 16.586C63.0569 16.934 62.2889 17.108 61.4249 17.108ZM68.8311 14.696L68.8671 12.482L74.3571 7.46H76.4451L72.2331 11.6L71.2971 12.392L68.8311 14.696ZM67.4271 17V3.644H69.1551V17H67.4271ZM74.7171 17L70.9731 12.356L72.0891 10.97L76.8411 17H74.7171ZM78.5013 17V3.644H80.2293V17H78.5013ZM87.7766 17.108C86.7566 17.108 85.8566 16.898 85.0766 16.478C84.3086 16.058 83.7086 15.482 83.2766 14.75C82.8566 14.018 82.6466 13.178 82.6466 12.23C82.6466 11.282 82.8506 10.442 83.2586 9.71C83.6786 8.978 84.2486 8.408 84.9686 8C85.7006 7.58 86.5226 7.37 87.4346 7.37C88.3586 7.37 89.1746 7.574 89.8826 7.982C90.5906 8.39 91.1426 8.966 91.5386 9.71C91.9466 10.442 92.1506 11.3 92.1506 12.284C92.1506 12.356 92.1446 12.44 92.1326 12.536C92.1326 12.632 92.1266 12.722 92.1146 12.806H83.9966V11.564H91.2146L90.5126 11.996C90.5246 11.384 90.3986 10.838 90.1346 10.358C89.8706 9.878 89.5046 9.506 89.0366 9.242C88.5806 8.966 88.0466 8.828 87.4346 8.828C86.8346 8.828 86.3006 8.966 85.8326 9.242C85.3646 9.506 84.9986 9.884 84.7346 10.376C84.4706 10.856 84.3386 11.408 84.3386 12.032V12.32C84.3386 12.956 84.4826 13.526 84.7706 14.03C85.0706 14.522 85.4846 14.906 86.0126 15.182C86.5406 15.458 87.1466 15.596 87.8306 15.596C88.3946 15.596 88.9046 15.5 89.3606 15.308C89.8286 15.116 90.2366 14.828 90.5846 14.444L91.5386 15.56C91.1066 16.064 90.5666 16.448 89.9186 16.712C89.2826 16.976 88.5686 17.108 87.7766 17.108ZM97.2861 17.108C96.4941 17.108 95.7381 17 95.0181 16.784C94.3101 16.568 93.7521 16.304 93.3441 15.992L94.0641 14.624C94.4721 14.9 94.9761 15.134 95.5761 15.326C96.1761 15.518 96.7881 15.614 97.4121 15.614C98.2161 15.614 98.7921 15.5 99.1401 15.272C99.5001 15.044 99.6801 14.726 99.6801 14.318C99.6801 14.018 99.5721 13.784 99.3561 13.616C99.1401 13.448 98.8521 13.322 98.4921 13.238C98.1441 13.154 97.7541 13.082 97.3221 13.022C96.8901 12.95 96.4581 12.866 96.0261 12.77C95.5941 12.662 95.1981 12.518 94.8381 12.338C94.4781 12.146 94.1901 11.888 93.9741 11.564C93.7581 11.228 93.6501 10.784 93.6501 10.232C93.6501 9.656 93.8121 9.152 94.1361 8.72C94.4601 8.288 94.9161 7.958 95.5041 7.73C96.1041 7.49 96.8121 7.37 97.6281 7.37C98.2521 7.37 98.8821 7.448 99.5181 7.604C100.166 7.748 100.694 7.958 101.102 8.234L100.364 9.602C99.9321 9.314 99.4821 9.116 99.0141 9.008C98.5461 8.9 98.0781 8.846 97.6101 8.846C96.8541 8.846 96.2901 8.972 95.9181 9.224C95.5461 9.464 95.3601 9.776 95.3601 10.16C95.3601 10.484 95.4681 10.736 95.6841 10.916C95.9121 11.084 96.2001 11.216 96.5481 11.312C96.9081 11.408 97.3041 11.492 97.7361 11.564C98.1681 11.624 98.6001 11.708 99.0321 11.816C99.4641 11.912 99.8541 12.05 100.202 12.23C100.562 12.41 100.85 12.662 101.066 12.986C101.294 13.31 101.408 13.742 101.408 14.282C101.408 14.858 101.24 15.356 100.904 15.776C100.568 16.196 100.094 16.526 99.4821 16.766C98.8701 16.994 98.1381 17.108 97.2861 17.108ZM106.304 17.108C105.512 17.108 104.756 17 104.036 16.784C103.328 16.568 102.77 16.304 102.362 15.992L103.082 14.624C103.49 14.9 103.994 15.134 104.594 15.326C105.194 15.518 105.806 15.614 106.43 15.614C107.234 15.614 107.81 15.5 108.158 15.272C108.518 15.044 108.698 14.726 108.698 14.318C108.698 14.018 108.59 13.784 108.374 13.616C108.158 13.448 107.87 13.322 107.51 13.238C107.162 13.154 106.772 13.082 106.34 13.022C105.908 12.95 105.476 12.866 105.044 12.77C104.612 12.662 104.216 12.518 103.856 12.338C103.496 12.146 103.208 11.888 102.992 11.564C102.776 11.228 102.668 10.784 102.668 10.232C102.668 9.656 102.83 9.152 103.154 8.72C103.478 8.288 103.934 7.958 104.522 7.73C105.122 7.49 105.83 7.37 106.646 7.37C107.27 7.37 107.9 7.448 108.536 7.604C109.184 7.748 109.712 7.958 110.12 8.234L109.382 9.602C108.95 9.314 108.5 9.116 108.032 9.008C107.564 8.9 107.096 8.846 106.628 8.846C105.872 8.846 105.308 8.972 104.936 9.224C104.564 9.464 104.378 9.776 104.378 10.16C104.378 10.484 104.486 10.736 104.702 10.916C104.93 11.084 105.218 11.216 105.566 11.312C105.926 11.408 106.322 11.492 106.754 11.564C107.186 11.624 107.618 11.708 108.05 11.816C108.482 11.912 108.872 12.05 109.22 12.23C109.58 12.41 109.868 12.662 110.084 12.986C110.312 13.31 110.426 13.742 110.426 14.282C110.426 14.858 110.258 15.356 109.922 15.776C109.586 16.196 109.112 16.526 108.5 16.766C107.888 16.994 107.156 17.108 106.304 17.108Z" fill="black"/>
</svg>
